<svg fill="none" height="161" viewBox="0 0 166 161" width="166" xmlns="http://www.w3.org/2000/svg" xmlns:xlink="http://www.w3.org/1999/xlink"><clipPath id="a"><path d="m0 0h165.48v160.56h-165.48z" transform="matrix(-1 0 0 1 165.48 0)"/></clipPath><g clip-path="url(#a)"><path d="m12.41 122.64h.06c5.35-1.3 10.71-.94 15.96-1.88 2.8-.36 5.08-1.73 6.67-3.65 4.46-6.04 2.47-14.85 1.75-21.8799-5.76-35.51 11-71.89 51.9-64.72 6.16 1.08 12.72 3.15 18.19-1.43 3.95-3.16 4.38-7.18 7.73-10.65.12-.3-.36-.48-.61-.59-6.29-2.7-10.02-16.930046-.86-17.8300461 2.4-.1299999 4.75 1.0099961 6.23 2.8799961 1.96 2.19 2.4 5.33 4.82 7.07 2.01.88005 9.02-3.97 11.79-4.69 7.4-2.49 15.27.38 22.91-.92 1.23-.2 2.67-.5 3.87-.35 1.62.31 2.89 1.96 2.63 3.69-.09 2.07-.24 4.09005-.83 5.92005-2.68 8.55-11.52 12.36-17.89 17.77-2.69 2.37-6.18 4.92-7.02 7.81-.94 4.26-.63 8.71-.22 13.01.38 3.71.17 7.38-1 10.48-.7 1.94-1.7 3.75-2.91 5.49-.27.42-.89.98-.79 1.39.03.17.17.32.35.47 4.27 3.26 9.7 5.38 13.15 9.59 2.04 2.67 4.27 6.62 4.19 9.74-.11 1.35-1 4.22-2.85 3.42-.41-.2-.76-.55-.89-.99-1.32-5.16-4.79-9.96-9.04-13.15-2.61-1.81-5.63-2.43-8.13-4.39-.25-.2-.79-.27-.88.04-.09.67 1.73 1.68 2.28 2.03 1.33.74 2.88 1.12 4.23 1.79 3.89 1.98 8.13 7.16 9.65 11.09.65 1.93 1.53 6.08-.31 7.41-3.4 1.18-3.87-4.3-4.79-6.4-.51-1.28-1.18-2.23-2.17-3.48-2.09-2.44-4.55-4.69-7.58-4.05-3.2.42-5.96.23-9.05-.26-1.54-.25-3.31-.55-4.93-.92-1.64.11-2.75.96-4.22 1.9-11.67 7.89-11.64 16.06-18.78 26.3599-1.34 1.89-3.6 3.43-4.68 5.48-1.91 5.43.95 5.97 5.69 6.66 6.69 1.03 18.12-2.93 21.82 4.76.29.75-.18 1.58-.92 1.87-2.13.75-4.51-.72-6.66-1-2.13-.34-4.45-.3-6.61-.24-5.71.13-14.28 1.48-18.75-1.16-1.74-1.11-3.15-3.25-3.86-5.27-.2-.52-.25-1.16-.64-1.12-.82.2-1.53.93-2.31 1.26-2.12.98-4.25 2.01-6.48 2.66-1.25.34-3.45.95-4.63 1.28-.47.14-.78.16-.79.34.32.94 1.69 1.84 2.66 2.22 8.1 3.52 18.53-.49 26.02 5.04.72.64 1.48 1.47 1.76 2.48.28 1.51-1.62 2.08-2.81 1.98-1.75-.06-3.55-.62-5.28-1.02-7.24-1.59-14.67.16-22 .03-4.44 0-7.08-1.52-10.32-4.43-.52-.42-1-.9-1.62-1.13-.6-.2-1.12-.15-1.78-.2-.09 0-.19-.01-.28-.02-.28.16-.71.18-1.11.29-1.3.3-2.64.71-3.9 1.08-6.89 2.05-13.44 2.03-20.52 1.41-3.48-.14-10.65-.54-13.82 1.54-1.51.97-2.09 2.86-1.06 4.36 8.53 10.96 61.73 12.67 76.85 13.03 10.29.16 20.82-.23 30.96-1.8 3-.44 6.18-1.18 8.47-2.21 3.09-1.28 6.21-3.65 9.12-6.38 1.23-1.16 2.99-3.34 4.71-4.03.58-.15 1.47-.04 1.77.56.32.81.6 1.8.45 2.69-.71 4.6-5.81 8.78-9.46 11.35-5.57 4.15-12.53 5.68-19.31 6.57-9.32 1.28-18.73 1.78-28.13 1.87-22.54.03-45.37-1.01-67.3-6.5-6.42-1.86-12.54-4.86-16.97-10-7.39-8.34-1.47-18.98 9.12-21.42zm122.15-108.6599v.06c.44 2.18 3.32 2.21 4.74.95 2.5-2.16.12-5.34005-2.8-4.27-1.25.49-2.18 1.93-1.94 3.26z" fill="#000"/></g></svg>